<?xml version="1.0" encoding="UTF-8" standalone="no"?>
<!DOCTYPE svg PUBLIC "-//W3C//DTD SVG 1.1//EN"
 "http://www.w3.org/Graphics/SVG/1.1/DTD/svg11.dtd">
<!-- Generated by graphviz version 2.43.20190912.0211 (20190912.0211)
 -->
<!-- Title: classes_DE_assignment Pages: 1 -->
<svg width="798pt" height="394pt"
 viewBox="0.00 0.00 798.00 394.00" xmlns="http://www.w3.org/2000/svg" xmlns:xlink="http://www.w3.org/1999/xlink">
<g id="graph0" class="graph" transform="scale(1 1) rotate(0) translate(4 390)">
<title>classes_DE_assignment</title>
<polygon fill="white" stroke="transparent" points="-4,4 -4,-390 794,-390 794,4 -4,4"/>
<!-- 0 -->
<g id="node1" class="node">
<title>0</title>
<polygon fill="none" stroke="black" points="0,-83 0,-152 89,-152 89,-83 0,-83"/>
<text text-anchor="middle" x="44.5" y="-136.8" font-family="Times,serif" font-size="14.00">EulerMethod</text>
<polyline fill="none" stroke="black" points="0,-129 89,-129 "/>
<text text-anchor="start" x="8" y="-113.8" font-family="Times,serif" font-size="14.00">name : str</text>
<polyline fill="none" stroke="black" points="0,-106 89,-106 "/>
<text text-anchor="middle" x="44.5" y="-90.8" font-family="Times,serif" font-size="14.00"> </text>
</g>
<!-- 5 -->
<g id="node6" class="node">
<title>5</title>
<polygon fill="none" stroke="black" points="120,-271.5 120,-385.5 237,-385.5 237,-271.5 120,-271.5"/>
<text text-anchor="middle" x="178.5" y="-370.3" font-family="Times,serif" font-size="14.00">NumericalMethod</text>
<polyline fill="none" stroke="black" points="120,-362.5 237,-362.5 "/>
<text text-anchor="start" x="128" y="-347.3" font-family="Times,serif" font-size="14.00">der</text>
<text text-anchor="start" x="128" y="-332.3" font-family="Times,serif" font-size="14.00">name : str</text>
<polyline fill="none" stroke="black" points="120,-324.5 237,-324.5 "/>
<text text-anchor="start" x="128" y="-309.3" font-family="Times,serif" font-size="14.00">get_gerr()</text>
<text text-anchor="start" x="128" y="-294.3" font-family="Times,serif" font-size="14.00">get_lerr()</text>
<text text-anchor="start" x="128" y="-279.3" font-family="Times,serif" font-size="14.00">get_y()</text>
</g>
<!-- 0&#45;&gt;5 -->
<g id="edge1" class="edge">
<title>0&#45;&gt;5</title>
<path fill="none" stroke="black" d="M57.18,-152.18C66.9,-176.17 81.5,-208.69 98.5,-235 104.69,-244.59 111.81,-254.23 119.2,-263.47"/>
<polygon fill="none" stroke="black" points="116.7,-265.95 125.74,-271.49 122.12,-261.53 116.7,-265.95"/>
</g>
<!-- 1 -->
<g id="node2" class="node">
<title>1</title>
<polygon fill="none" stroke="black" points="411.5,-68 411.5,-167 503.5,-167 503.5,-68 411.5,-68"/>
<text text-anchor="middle" x="457.5" y="-151.8" font-family="Times,serif" font-size="14.00">Exact</text>
<polyline fill="none" stroke="black" points="411.5,-144 503.5,-144 "/>
<text text-anchor="start" x="419.5" y="-128.8" font-family="Times,serif" font-size="14.00">c</text>
<polyline fill="none" stroke="black" points="411.5,-121 503.5,-121 "/>
<text text-anchor="start" x="419.5" y="-105.8" font-family="Times,serif" font-size="14.00">derivative()</text>
<text text-anchor="start" x="419.5" y="-90.8" font-family="Times,serif" font-size="14.00">exact()</text>
<text text-anchor="start" x="419.5" y="-75.8" font-family="Times,serif" font-size="14.00">set_constant()</text>
</g>
<!-- 2 -->
<g id="node3" class="node">
<title>2</title>
<polygon fill="none" stroke="black" points="411,-278.5 411,-378.5 504,-378.5 504,-278.5 411,-278.5"/>
<text text-anchor="middle" x="457.5" y="-363.3" font-family="Times,serif" font-size="14.00">ExactAbstract</text>
<polyline fill="none" stroke="black" points="411,-355.5 504,-355.5 "/>
<polyline fill="none" stroke="black" points="411,-331.5 504,-331.5 "/>
<text text-anchor="start" x="419" y="-316.3" font-family="Times,serif" font-size="14.00">derivative()</text>
<text text-anchor="start" x="419" y="-301.3" font-family="Times,serif" font-size="14.00">exact()</text>
<text text-anchor="start" x="419" y="-286.3" font-family="Times,serif" font-size="14.00">set_constant()</text>
</g>
<!-- 1&#45;&gt;2 -->
<g id="edge2" class="edge">
<title>1&#45;&gt;2</title>
<path fill="none" stroke="black" d="M457.5,-167.24C457.5,-197.39 457.5,-236.29 457.5,-268.22"/>
<polygon fill="none" stroke="black" points="454,-268.32 457.5,-278.32 461,-268.32 454,-268.32"/>
</g>
<!-- 3 -->
<g id="node4" class="node">
<title>3</title>
<polygon fill="none" stroke="black" points="522,-0.5 522,-234.5 689,-234.5 689,-0.5 522,-0.5"/>
<text text-anchor="middle" x="605.5" y="-219.3" font-family="Times,serif" font-size="14.00">Gui</text>
<polyline fill="none" stroke="black" points="522,-211.5 689,-211.5 "/>
<text text-anchor="start" x="530" y="-196.3" font-family="Times,serif" font-size="14.00">X</text>
<text text-anchor="start" x="530" y="-181.3" font-family="Times,serif" font-size="14.00">ax_gerr</text>
<text text-anchor="start" x="530" y="-166.3" font-family="Times,serif" font-size="14.00">ax_lerr</text>
<text text-anchor="start" x="530" y="-151.3" font-family="Times,serif" font-size="14.00">ax_sol</text>
<text text-anchor="start" x="530" y="-136.3" font-family="Times,serif" font-size="14.00">checkboxes : CheckButtons</text>
<text text-anchor="start" x="530" y="-121.3" font-family="Times,serif" font-size="14.00">exact</text>
<text text-anchor="start" x="530" y="-106.3" font-family="Times,serif" font-size="14.00">fig</text>
<text text-anchor="start" x="530" y="-91.3" font-family="Times,serif" font-size="14.00">h</text>
<text text-anchor="start" x="530" y="-76.3" font-family="Times,serif" font-size="14.00">numericals : list</text>
<text text-anchor="start" x="530" y="-61.3" font-family="Times,serif" font-size="14.00">x0</text>
<text text-anchor="start" x="530" y="-46.3" font-family="Times,serif" font-size="14.00">y0</text>
<polyline fill="none" stroke="black" points="522,-38.5 689,-38.5 "/>
<text text-anchor="start" x="530" y="-23.3" font-family="Times,serif" font-size="14.00">add_numericals()</text>
<text text-anchor="start" x="530" y="-8.3" font-family="Times,serif" font-size="14.00">show_window()</text>
</g>
<!-- 4 -->
<g id="node5" class="node">
<title>4</title>
<polygon fill="none" stroke="black" points="107.5,-83 107.5,-152 249.5,-152 249.5,-83 107.5,-83"/>
<text text-anchor="middle" x="178.5" y="-136.8" font-family="Times,serif" font-size="14.00">ImprovedEulerMethod</text>
<polyline fill="none" stroke="black" points="107.5,-129 249.5,-129 "/>
<text text-anchor="start" x="115.5" y="-113.8" font-family="Times,serif" font-size="14.00">name : str</text>
<polyline fill="none" stroke="black" points="107.5,-106 249.5,-106 "/>
<text text-anchor="middle" x="178.5" y="-90.8" font-family="Times,serif" font-size="14.00"> </text>
</g>
<!-- 4&#45;&gt;5 -->
<g id="edge3" class="edge">
<title>4&#45;&gt;5</title>
<path fill="none" stroke="black" d="M178.5,-152.08C178.5,-181.4 178.5,-224.83 178.5,-261.14"/>
<polygon fill="none" stroke="black" points="175,-261.17 178.5,-271.17 182,-261.17 175,-261.17"/>
</g>
<!-- 6 -->
<g id="node7" class="node">
<title>6</title>
<polygon fill="none" stroke="black" points="268,-83 268,-152 393,-152 393,-83 268,-83"/>
<text text-anchor="middle" x="330.5" y="-136.8" font-family="Times,serif" font-size="14.00">RungeKuttaMethod</text>
<polyline fill="none" stroke="black" points="268,-129 393,-129 "/>
<text text-anchor="start" x="276" y="-113.8" font-family="Times,serif" font-size="14.00">name : str</text>
<polyline fill="none" stroke="black" points="268,-106 393,-106 "/>
<text text-anchor="middle" x="330.5" y="-90.8" font-family="Times,serif" font-size="14.00"> </text>
</g>
<!-- 6&#45;&gt;5 -->
<g id="edge4" class="edge">
<title>6&#45;&gt;5</title>
<path fill="none" stroke="black" d="M311.68,-152.06C297.89,-175.84 278.2,-208.17 258.5,-235 251.53,-244.49 243.82,-254.22 236.03,-263.62"/>
<polygon fill="none" stroke="black" points="233.22,-261.52 229.48,-271.44 238.58,-266.02 233.22,-261.52"/>
</g>
<!-- 7 -->
<g id="node8" class="node">
<title>7</title>
<polygon fill="none" stroke="black" points="707,-60.5 707,-174.5 790,-174.5 790,-60.5 707,-60.5"/>
<text text-anchor="middle" x="748.5" y="-159.3" font-family="Times,serif" font-size="14.00">_Numerical</text>
<polyline fill="none" stroke="black" points="707,-151.5 790,-151.5 "/>
<text text-anchor="start" x="715" y="-136.3" font-family="Times,serif" font-size="14.00">gerr</text>
<text text-anchor="start" x="715" y="-121.3" font-family="Times,serif" font-size="14.00">lerr</text>
<text text-anchor="start" x="715" y="-106.3" font-family="Times,serif" font-size="14.00">line</text>
<text text-anchor="start" x="715" y="-91.3" font-family="Times,serif" font-size="14.00">nm</text>
<polyline fill="none" stroke="black" points="707,-83.5 790,-83.5 "/>
<text text-anchor="start" x="715" y="-68.3" font-family="Times,serif" font-size="14.00">add_graph()</text>
</g>
</g>
</svg>
