<?xml version="1.0" encoding="UTF-8" standalone="no"?>
<!DOCTYPE svg PUBLIC "-//W3C//DTD SVG 1.1//EN"
 "http://www.w3.org/Graphics/SVG/1.1/DTD/svg11.dtd">
<!-- Generated by graphviz version 2.43.20190912.0211 (20190912.0211)
 -->
<!-- Title: packages_DE_assignment Pages: 1 -->
<svg width="152pt" height="116pt"
 viewBox="0.00 0.00 151.50 116.00" xmlns="http://www.w3.org/2000/svg" xmlns:xlink="http://www.w3.org/1999/xlink">
<g id="graph0" class="graph" transform="scale(1 1) rotate(0) translate(4 112)">
<title>packages_DE_assignment</title>
<polygon fill="white" stroke="transparent" points="-4,4 -4,-112 147.5,-112 147.5,4 -4,4"/>
<!-- 0 -->
<g id="node1" class="node">
<title>0</title>
<polygon fill="none" stroke="black" points="54,-108 0,-108 0,-72 54,-72 54,-108"/>
<text text-anchor="middle" x="27" y="-86.3" font-family="Times,serif" font-size="14.00">gui</text>
</g>
<!-- 1 -->
<g id="node2" class="node">
<title>1</title>
<polygon fill="none" stroke="black" points="94,-36 40,-36 40,0 94,0 94,-36"/>
<text text-anchor="middle" x="67" y="-14.3" font-family="Times,serif" font-size="14.00">main</text>
</g>
<!-- 1&#45;&gt;0 -->
<g id="edge1" class="edge">
<title>1&#45;&gt;0</title>
<path fill="none" stroke="black" d="M57.11,-36.3C52.51,-44.36 46.94,-54.11 41.85,-63.02"/>
<polygon fill="black" stroke="black" points="36.77,-71.9 37.83,-60.98 39.25,-67.55 41.74,-63.21 41.74,-63.21 41.74,-63.21 39.25,-67.55 45.64,-65.45 36.77,-71.9 36.77,-71.9"/>
</g>
<!-- 2 -->
<g id="node3" class="node">
<title>2</title>
<polygon fill="none" stroke="black" points="143.5,-108 72.5,-108 72.5,-72 143.5,-72 143.5,-108"/>
<text text-anchor="middle" x="108" y="-86.3" font-family="Times,serif" font-size="14.00">numerical</text>
</g>
<!-- 1&#45;&gt;2 -->
<g id="edge2" class="edge">
<title>1&#45;&gt;2</title>
<path fill="none" stroke="black" d="M77.13,-36.3C81.85,-44.36 87.56,-54.11 92.78,-63.02"/>
<polygon fill="black" stroke="black" points="97.98,-71.9 89.04,-65.54 95.45,-67.58 92.93,-63.27 92.93,-63.27 92.93,-63.27 95.45,-67.58 96.81,-60.99 97.98,-71.9 97.98,-71.9"/>
</g>
</g>
</svg>
